<?xml version="1.0" encoding="UTF-8"?>
<svg id="Layer_1" data-name="Layer 1" xmlns="http://www.w3.org/2000/svg" viewBox="0 0 447.38 405.98">
  <polygon points="397.39 292.49 411.65 269.92 369.47 383.74 364.35 344.8 397.39 292.49" fill="#424244"/>
  <polygon points="230.72 225.85 363.81 340.68 369.47 383.74 131.35 396.88 186.06 290.23 230.72 225.85" fill="#727375"/>
  <polygon points="186.06 290.23 129.48 401.64 14.21 233.26 54.47 42.93 71.17 39.76 186.06 290.23" fill="#424244"/>
  <polygon points="321.64 48.23 190.26 267.48 84.63 37.2 208.29 13.69 321.64 48.23" fill="#a5a5a6"/>
  <polygon points="230.72 225.85 331.92 56.95 432.1 212.64 355.64 333.68 230.72 225.85" fill="#929495"/>
  <path d="M118.6,405.98L0,236.14l11.82-55.91-.18-.45.3-.12,13.66-64.57-.18-.49.3-.1L43.28,31.52,209.03,0l126.97,38.69,111.38,173.1-68.53,184.91-260.24,9.28ZM420.87,195.19l-79.95,125.83-181.87,70.2,26.38-.94,170.2-56.61,76.46-121.04-11.23-17.45ZM411.65,269.92l-47.3,74.88-131.69,43.8,136.81-4.86,42.18-113.82ZM88.12,339.08l34.11,48.85L34.12,139.13l-8.45,39.93,62.44,160.03h0ZM39.39,114.18l96.21,271.68,194.77-74,82.58-128.97-17.06-26.51-88.94,135.28-151.54,59.39L45.11,87.16l-5.72,27.02ZM49.99,64.08l112.84,270.03,133.77-51.38,91.43-138.58-25.36-39.41-95.28,152.77-81.33,32.73L71.17,39.76l-16.7,3.17-4.48,21.15ZM14.21,233.26l43.49,62.27-37-92.98-6.49,30.7ZM331.92,56.95l-126.68,211.4,51.42-20.13,98.04-155.81.06.03-22.84-35.5ZM176.67,237.87l13.59,29.61,12.91-21.54-26.5-8.07ZM169.26,221.69l40.96,12.49,19.19-32.03-80.35-24.49,20.2,44.03ZM141.64,161.49l94.81,28.9,20.69-34.52-134.77-36.38,19.27,42.01ZM115.24,103.94l149.01,40.06,16.72-27.91L94.79,59.35l20.7,45.14-.25-.54ZM87.37,43.17l200.65,61.16,19.78-33.01L153.12,24.18l-68.49,13.02,2.74,5.98ZM181.23,18.84l133.62,40.72,6.79-11.33L208.29,13.69l-27.06,5.15Z" fill="#231f20"/>
</svg>